M48
; DRILL file {KiCad 8.0.3} date 2024-11-04T11:57:44-0500
; FORMAT={-:-/ absolute / inch / decimal}
; #@! TF.CreationDate,2024-11-04T11:57:44-05:00
; #@! TF.GenerationSoftware,Kicad,Pcbnew,8.0.3
; #@! TF.FileFunction,Plated,1,2,PTH
FMAT,2
INCH
; #@! TA.AperFunction,Plated,PTH,ComponentDrill
T1C0.0315
; #@! TA.AperFunction,Plated,PTH,ComponentDrill
T2C0.0433
; #@! TA.AperFunction,Plated,PTH,ComponentDrill
T3C0.0472
%
G90
G05
T1
X0.0587Y-0.4605
X0.0849Y-0.625
X0.135Y-0.85
X0.135Y-1.25
X0.135Y-1.525
X0.135Y-1.925
X0.1571Y-0.4605
X0.1833Y-0.625
X0.2591Y-0.425
X0.2841Y-0.575
X0.2841Y-0.975
X0.335Y-1.225
X0.3358Y-1.1
X0.36Y-1.5411
X0.36Y-1.7411
X0.3866Y-2.0
X0.4334Y-1.225
X0.4342Y-1.1
X0.4604Y-0.6004
X0.4604Y-0.7004
X0.4604Y-0.8004
X0.4604Y-0.9004
X0.5834Y-2.0
X0.5858Y-1.075
X0.5866Y-1.2
X0.61Y-1.425
X0.61Y-1.825
X0.6591Y-0.425
X0.6842Y-1.075
X0.685Y-1.2
X0.7604Y-0.6004
X0.7604Y-0.7004
X0.7604Y-0.8004
X0.7604Y-0.9004
X0.7624Y-0.4268
X0.7691Y-0.1708
X0.7691Y-0.2692
X0.785Y-1.425
X0.785Y-1.825
X0.8609Y-0.4268
T2
X0.11Y-0.2
X0.11Y-2.3
X0.135Y-2.05
X0.135Y-2.15
X0.21Y-0.2
X0.21Y-2.3
X0.31Y-0.2
X0.31Y-2.3
X0.385Y-2.125
X0.5291Y-0.2
X0.61Y-2.3
X0.6291Y-0.2
X0.685Y-2.125
X0.71Y-2.3
X0.81Y-2.3
T3
X0.135Y-1.375
X0.435Y-1.375
M30
